<svg xmlns="http://www.w3.org/2000/svg" height="48" width="48" viewBox="0 0 48 48"><title>furnished property</title><g stroke-linecap="square" stroke-width="2" fill="none" stroke="#ffffff" stroke-linejoin="miter" class="nc-icon-wrapper" stroke-miterlimit="10"><path d="M42,28V23a3,3,0,0,0-3-3H24a3,3,0,0,0-3,3v5"></path><path d="M38,32v2H25V32a4,4,0,0,0-4-4h0a4,4,0,0,0-4,4V42H46V32a4,4,0,0,0-4-4h0A4,4,0,0,0,38,32Z"></path><line x1="21" y1="42" x2="21" y2="46"></line><line x1="42" y1="42" x2="42" y2="46"></line><line x1="9" y1="46" x2="9" y2="19" stroke="#ffffff"></line><polygon points="13 2 5 2 2 12 2 14 16 14 16 12 13 2" stroke="#ffffff"></polygon><line x1="13" y1="46" x2="5" y2="46" stroke="#ffffff"></line></g></svg>